<svg width="45" height="45" viewBox="0 0 45 45" fill="none" xmlns="http://www.w3.org/2000/svg">
<circle cx="22.1452" cy="22.1452" r="18.1452" fill="#414347"/>
<circle opacity="0.1" cx="22.5" cy="22.5" r="22" transform="matrix(1 0 0 -1 0 45)" stroke="white"/>
<path d="M25.9795 31C18.8228 31 13 25.1772 13 18.0205C13.0027 16.7929 13.4511 15.608 14.2618 14.6862C15.0726 13.7644 16.1904 13.1684 17.4076 13.009C17.7179 12.9745 18.0311 13.0399 18.3018 13.1955C18.5724 13.351 18.7865 13.5888 18.9129 13.8743L20.7246 18.1016C20.8186 18.321 20.8563 18.5605 20.8342 18.7981C20.8122 19.0358 20.7311 19.2642 20.5984 19.4627L19.1022 21.7521C19.7797 23.1271 20.8961 24.2372 22.2749 24.9068L24.5373 23.4016C24.7355 23.268 24.9645 23.1871 25.2027 23.1666C25.4408 23.1461 25.6803 23.1866 25.8984 23.2844L30.1257 25.0871C30.4112 25.2135 30.6489 25.4276 30.8045 25.6982C30.9601 25.9689 31.0255 26.2821 30.991 26.5924C30.8316 27.8096 30.2356 28.9274 29.3138 29.7382C28.392 30.5489 27.2071 30.9973 25.9795 31Z" fill="#F8C719"/>
</svg>
