<svg width="108" height="108" viewBox="0 0 108 108" fill="none" xmlns="http://www.w3.org/2000/svg">
<circle cx="54" cy="54" r="37" fill="white" stroke="#DEDDDD"/>
<path fill-rule="evenodd" clip-rule="evenodd" d="M48.3227 46.4575H70.1299V62.0189V62.5482V68L65.3053 62.5482H48.3227V46.4575Z" fill="#FCAE1A"/>
<path d="M70.1299 46.4575V45.9575H70.6299V46.4575H70.1299ZM48.3227 46.4575H47.8227V45.9575H48.3227V46.4575ZM70.1299 68H70.6299V69.3195L69.7554 68.3314L70.1299 68ZM65.3053 62.5482V62.0482H65.5305L65.6797 62.2169L65.3053 62.5482ZM48.3227 62.5482V63.0482H47.8227V62.5482H48.3227ZM70.1299 46.9575H48.3227V45.9575H70.1299V46.9575ZM69.6299 62.0189V46.4575H70.6299V62.0189H69.6299ZM69.6299 62.5482V62.0189H70.6299V62.5482H69.6299ZM69.6299 68V62.5482H70.6299V68H69.6299ZM65.6797 62.2169L70.5043 67.6687L69.7554 68.3314L64.9308 62.8796L65.6797 62.2169ZM48.3227 62.0482H65.3053V63.0482H48.3227V62.0482ZM48.8227 46.4575V62.5482H47.8227V46.4575H48.8227Z" fill="#606163"/>
<path d="M65.4717 50.6919H52.7685" stroke="black"/>
<path d="M65.4717 54.6087H52.7685" stroke="black"/>
<path d="M65.4717 58.5255H52.7685" stroke="black"/>
<path d="M58.7539 59.0857V47.1922V45.5082H44.9834V62.0328H45.3441V59.0857H58.7539Z" fill="white"/>
<path d="M33.6084 40V39.5H33.1084V40H33.6084ZM55.4156 40H55.9156V39.5H55.4156V40ZM33.6084 61.5425H33.1084V62.862L33.9828 61.8739L33.6084 61.5425ZM38.433 56.0907V55.5907H38.2078L38.0586 55.7594L38.433 56.0907ZM55.4156 56.0907V56.5907H55.9156V56.0907H55.4156ZM33.6084 40.5H55.4156V39.5H33.6084V40.5ZM34.1084 55.5614V40H33.1084V55.5614H34.1084ZM34.1084 56.0907V55.5614H33.1084V56.0907H34.1084ZM34.1084 61.5425V56.0907H33.1084V61.5425H34.1084ZM38.0586 55.7594L33.234 61.2112L33.9828 61.8739L38.8074 56.4221L38.0586 55.7594ZM55.4156 55.5907H38.433V56.5907H55.4156V55.5907ZM54.9156 40V56.0907H55.9156V40H54.9156Z" fill="#606163"/>
<path d="M38.2666 44.2344H50.9698" stroke="black"/>
<path d="M38.2666 48.1512H50.9698" stroke="black"/>
<path d="M38.2666 52.0681H50.9698" stroke="black"/>
<circle opacity="0.5" cx="46.5" cy="46.5" r="46" transform="matrix(1 0 0 -1 7.5 100.5)" stroke="#DEDDDD"/>
<circle opacity="0.2" cx="54" cy="54" r="53.5" transform="matrix(1 0 0 -1 0 108)" stroke="#DEDDDD"/>
</svg>
