<svg width="108" height="108" viewBox="0 0 108 108" fill="none" xmlns="http://www.w3.org/2000/svg">
<circle cx="53.5" cy="54.5" r="37" fill="white" stroke="#DEDDDD"/>
<circle opacity="0.5" cx="46.5" cy="46.5" r="46" transform="matrix(1 0 0 -1 7.5 100.5)" stroke="#DEDDDD"/>
<circle opacity="0.2" cx="54" cy="54" r="53.5" transform="matrix(1 0 0 -1 0 108)" stroke="#DEDDDD"/>
<circle cx="56.216" cy="59.3449" r="17.8449" stroke="white"/>
<path d="M53.8576 45.2746L58.0435 53.2082L58.1582 53.4257L58.4005 53.4676L67.2393 54.9969L60.9875 61.4295L60.8161 61.6058L60.8511 61.8492L62.128 70.728L54.0783 66.7699L53.8576 66.6615L53.637 66.7699L45.5873 70.728L46.8642 61.8492L46.8992 61.6058L46.7278 61.4295L40.476 54.9969L49.3148 53.4676L49.5571 53.4257L49.6718 53.2082L53.8576 45.2746Z" stroke="#1B1D20"/>
<path d="M43.9571 62.1607L42.21 61.3017L36.0483 64.3314L37.0257 57.5351L32.2402 52.6113L39.0059 51.4406L42.21 45.3678L45.414 51.4406L47.3942 51.7833" stroke="#606163"/>
<path d="M64.2831 62.1607L66.0303 61.3017L72.1919 64.3314L71.2145 57.5351L76 52.6113L69.2343 51.4406L66.0303 45.3678L62.8262 51.4406L60.846 51.7833" stroke="#606163"/>
<path d="M53.8574 51.1916L56.3494 55.9149L61.6116 56.8254L57.8896 60.655L58.6498 65.941L53.8574 63.5846L49.065 65.941L49.8252 60.655L46.1032 56.8254L51.3653 55.9149L53.8574 51.1916Z" fill="#FCAE1A"/>
</svg>
